<?xml version="1.0" encoding="utf-8"?>
<!-- Generator: Adobe Illustrator 27.0.1, SVG Export Plug-In . SVG Version: 6.00 Build 0)  -->
<svg version="1.1" id="Camada_1" xmlns="http://www.w3.org/2000/svg" xmlns:xlink="http://www.w3.org/1999/xlink" x="0px" y="0px"
	 viewBox="0 0 1366 768" style="enable-background:new 0 0 1366 768;" xml:space="preserve">
<style type="text/css">
	.st0{fill:#FFFFFF;}
</style>
<g>
	<path class="st0" d="M323.84,418.52h64.75c-1.56,3.36-3.43,6.53-5.63,9.5c-6.5,8.79-15.32,15.6-26.47,20.42
		c-11.16,4.82-24.14,7.23-38.96,7.23c-15.19,0-28.35-2.79-39.51-8.37c-11.16-5.58-19.75-13.66-25.79-24.25
		c-6.04-10.59-9.06-23.35-9.06-38.29c0-14.94,2.88-27.61,8.64-38.01c5.76-10.4,13.9-18.3,24.41-23.69c10.52-5.39,23-8.08,37.45-8.08
		c12.25,0,23.09,1.7,32.51,5.11c9.42,3.4,17.19,8.23,23.32,14.47c6.13,6.24,10.1,13.71,11.93,22.41h46.91
		c-2.38-16.07-8.55-30.35-18.52-42.83c-9.97-12.48-23-22.27-39.09-29.36c-16.1-7.09-35.11-10.64-57.06-10.64
		c-16.83,0-32.38,2.51-46.64,7.52c-14.26,5.01-26.71,12.25-37.31,21.7c-10.61,9.46-18.89,21.04-24.83,34.75
		c-5.94,13.71-8.92,29.27-8.92,46.66c0,17.4,2.92,32.95,8.78,46.66c5.85,13.71,14.03,25.3,24.55,34.75
		c10.52,9.46,22.77,16.69,36.76,21.7c13.99,5.01,29.03,7.52,45.13,7.52c16.64,0,31.27-2.55,43.9-7.66
		c12.62-5.11,23.22-12.15,31.82-21.13c2.78-2.9,5.32-5.95,7.69-9.13l2.46,33.67h33.47V383.63H323.84V418.52z"/>
	<path class="st0" d="M686.52,375.97h-48.29l-27.38,37.61l-66.17-58.32c-5.12-4.72-8.83-9.08-11.11-13.05
		c-2.29-3.97-3.43-7.66-3.43-11.06c0-4.92,1.32-9.08,3.98-12.48c2.65-3.4,6.35-6,11.11-7.8c4.75-1.79,10.42-2.7,17.01-2.7
		c11.16,0,19.8,2.7,25.93,8.09c6.13,5.39,9.74,12.44,10.84,21.13h45.54c-0.74-12.29-4.44-23.16-11.11-32.62
		c-6.68-9.45-16.14-16.92-28.39-22.41c-12.26-5.48-27.07-8.23-44.45-8.23c-16.46,0-30.64,2.27-42.52,6.81
		c-11.89,4.54-20.94,10.83-27.16,18.86c-6.22,8.04-9.33,17.45-9.33,28.22c0,8.7,2.51,16.93,7.55,24.68
		c4.74,7.32,11.1,14.64,19.02,21.95c-7.17,2-13.56,4.47-19.16,7.41c-11.34,5.96-19.71,13.29-25.1,21.98
		c-5.4,8.7-8.1,18.34-8.1,28.93c0,11.73,3.2,22.27,9.6,31.63c6.4,9.36,15.54,16.83,27.43,22.41c11.89,5.58,26.15,8.37,42.8,8.37
		c13.35,0,25.19-1.61,35.53-4.82c10.33-3.21,19.98-8.27,28.94-15.18c3.83-2.95,7.64-6.27,11.41-9.9l29.2,25.64h58.16l-62.02-54.66
		L686.52,375.97z M575.96,451c-9.15,5.58-20.58,8.37-34.29,8.37c-8.05,0-15.09-1.46-21.12-4.4c-6.03-2.93-10.66-6.85-13.85-11.77
		c-3.2-4.91-4.8-10.3-4.8-16.17c0-9.26,3.52-17.21,10.56-23.83c4.34-4.08,9.85-7.48,16.52-10.19l57.38,50.4
		C583.08,446.23,579.62,448.77,575.96,451z"/>
	<polygon class="st0" points="915.71,317.15 915.71,273.65 700.89,273.65 700.89,317.15 784.74,317.15 784.74,491.14 832.14,491.14 
		832.14,317.15 	"/>
	<path class="st0" d="M1050.54,358.81c0.42-0.12,0.8-0.3,1.18-1.2c0.7-1.64,1.61-3.14,2.72-4.49c-0.4-0.16-0.78-0.34-1.13-0.53
		c-0.56-0.08-1.12-0.18-1.65-0.32c-0.25-0.07-0.53-0.11-0.81-0.16c-1.48-0.26-3.88-0.68-5.86-2.44c0.06,0.24,0.11,0.48,0.16,0.72
		c0.65,3.33,1.28,6.66,1.87,10C1048.12,359.71,1049.29,359.18,1050.54,358.81z"/>
	<path class="st0" d="M1075.16,375.28c1.59,0.54,2.93,1.62,3.89,3.08c2.37-0.92,4.98-0.83,7.82,0.27c0.27,0.11,0.55,0.23,0.82,0.35
		c0.23-0.01,0.46-0.02,0.7-0.02h4.23l0.24,0.59l1.43-0.35l0.76,1.44c0.01,0,0.03,0,0.04,0.01c0.64,0.1,1.76-0.2,2.95-0.5
		c1.59-0.41,3.56-0.92,5.8-0.92c0.03,0,0.06,0,0.09,0c-0.5-0.24-1.03-0.53-1.57-0.87c-0.86-0.55-2.05-1.31-3.07-2.55
		c-0.11-0.04-0.22-0.08-0.33-0.12c-0.26-0.1-0.57-0.21-0.9-0.34c-1.97,0.06-3.6-0.36-4.87-1.16l-2.64,0.7l-1.65-3.1
		c-0.26-0.05-0.52-0.1-0.78-0.16c-2.63-0.61-4.23-0.96-5.68-0.64c-4.87,1.07-9.38,0.04-12.35-0.84l-0.85-0.25
		c-1.18-0.35-2.29-0.69-3.27-0.85c-2.5-0.41-3.13,0.4-3.47,0.85c-4.23,5.44-9.66,8.71-14.41,11.34c-2.49,1.38-4.32,3.01-5.54,4.96
		c0.25-0.02,0.5-0.03,0.74-0.03c0.69,0,1.32,0.06,1.87,0.15l4.17-5.03l1.61,1.53c0.43-1.56,1.32-2.79,2.65-3.68
		c0.15-0.12,0.32-0.32,0.5-0.5c1.26-1.29,3.87-3.97,8.3-3.83c0.83,0.03,1.65,0,2.47-0.02c0.71-0.02,1.39-0.01,2.11-0.03
		c0.92-0.01,2.24-0.03,3.68,0.47C1072.14,374.76,1073.69,374.78,1075.16,375.28z"/>
	<path class="st0" d="M1015.11,395.29c-0.25-0.08-0.5-0.17-0.75-0.23l-0.3,0c-0.11,0-0.21-0.01-0.32-0.01
		c-3.69,1.94-7.24,1.56-9.9,0.81c0.32,0.18,0.64,0.36,0.96,0.54c1.3,0.72,2.59,1.44,3.84,2.22c1.81,1.13,3.72,1.49,6.59,1.25
		c0.35-0.03,0.69-0.05,1.03-0.06c-0.24-1.27-0.31-2.68-0.11-4.23C1015.81,395.5,1015.46,395.41,1015.11,395.29z"/>
	<path class="st0" d="M1042.81,269.3c-70.8,0-128.19,52.35-128.19,116.94c0,54.81,41.35,100.8,97.14,113.46
		c-2.36-1.94-4.1-4.42-5.07-7.38c-0.41-1.24-0.83-2.48-1.25-3.71c-0.59-1.73-1.18-3.46-1.73-5.2c-1.21-3.79-1.39-7.55-0.56-11.17
		c0.29-1.25,0.7-2.41,1.24-3.48c-0.15,0-0.3,0-0.44,0c-1.55,0-2.97-0.24-4.04-0.44c-4.35-0.84-7.34-4.2-7.61-8.56l-0.08-1.14
		c-0.16-2.45-0.33-4.98-0.25-7.62c0.18-6.13,3.76-9.83,9.83-10.15c4.13-0.22,8.26-0.18,12.25-0.14l0.65,0.01
		c1.95,0.02,3.9,0.08,5.85,0.15c1.99,0.07,3.98,0.13,5.97,0.14c2.3,0.01,4.58-0.01,6.88-0.04c2.62-0.03,5.24-0.06,7.86-0.04
		c0.45-1.16,0.89-2.36,1.27-3.55c0.44-1.4,0.21-3.07-0.77-5.59c-1.11-2.85-3.04-5.66-6.07-8.85c-1.5-1.58-3.35-3.05-5.3-4.6
		c-0.5-0.4-0.99-0.79-1.48-1.19c-1.31-0.14-2.61-0.28-3.93-0.41l-3.91-0.41c-0.92-0.1-2.06-0.22-3.29-0.54
		c-2.21-0.59-4.66-0.99-7.94-1.3c-3.62-0.35-7-1.46-9.24-2.27c-4.27-1.54-6.95-4.69-8.92-6.99c-0.48-0.56-1.25-1.47-1.79-2.05
		c-0.13,0-0.26,0-0.41,0c-0.75,0-1.65-0.01-2.77-0.05c-4.43-0.19-7.99,0.33-11.24,1.64c-2.12,0.85-4.18,1.38-6.17,1.9
		c-0.83,0.22-1.67,0.43-2.49,0.67c-4.35,1.27-8.36,0.27-11.18-2.74c-2.37-0.04-4.41-0.92-5.34-1.36c-0.23-0.11-0.45-0.22-0.68-0.3
		c-0.92-0.22-1.77-0.53-2.56-0.87c-0.8,0.15-1.7,0.18-2.68,0.04c-1.47,0.99-2.94,1.48-3.93,1.81c-0.32,0.11-0.66,0.19-0.96,0.35
		c-3.45,1.78-7.41,1.48-10.6-0.77c-0.79-0.56-3.11-2.2-3.87-5.2c-2.07-1.51-2.8-3.39-3.06-4.5c-0.37-1.58-0.21-3.19,0.45-4.68
		c-0.79-2.88-0.03-4.9,0.82-6.18c0.99-1.49,2.97-3.25,6.79-3.25c0.15,0,0.29,0,0.47,0c0.22,0,0.47,0.01,0.76,0.03
		c0.42-0.4,0.84-0.77,1.26-1.11c0.76-2.13,2.15-3.31,3.01-3.87c1.71-1.11,3.81-1.46,5.94-0.98l0.2,0.01
		c1.05,0.04,2.88,0.11,4.68,1.14l1.04-1.95l2.67,1.03c0.21-0.18,0.45-0.36,0.7-0.53c1.31-2.73,3.64-4.36,6.57-4.69
		c0.51-0.86,1.28-1.85,2.39-2.65c0.91-3.06,2.76-5.21,5.31-6.25c2.24-0.92,4.7-0.85,7.06,0.17c0.26-0.25,0.49-0.49,0.72-0.72
		c5.5-5.61,10.58-2.24,12.01-1.07c0.02-0.01,0.32,0.05,0.66,0.12c-0.1-0.22-0.2-0.44-0.29-0.66c-0.8-1.97-0.79-3.8-0.79-5.13
		c0-0.31,0.01-0.62-0.01-0.92l-0.11-1.66c-2.78,0.91-5.56,0.67-7.94-0.7c-2.8-1.61-4.59-4.52-5.03-8.2l-0.79-6.65l5.4-0.29
		l0.23-3.48l3.23-1.61c3.34-1.66,6.25-0.78,7.71-0.22c0.02,0,0.04-0.01,0.06-0.01c0.43-0.68,0.99-1.36,1.7-1.98
		c0.79-1.6,2.33-3.21,5.33-4.03c1.78-0.49,3.47-0.95,5.18-1.34c1.41-0.33,2.91-1.26,4.64-2.34c0.21-0.13,0.41-0.25,0.61-0.38
		c0.17-0.31,0.35-0.61,0.54-0.9c0.07-0.11,0.13-0.24,0.21-0.37c0.5-0.9,1.33-2.4,2.93-3.59c3.26-2.42,6.57-3.89,10.09-4.48
		c1-0.17,2-0.39,2.99-0.6c1.48-0.32,2.97-0.64,4.47-0.85c2.07-0.29,4.07-0.19,5.92-0.04c0.66,0.06,1.31,0.14,1.96,0.23
		c0.96,0.13,1.77,0.23,2.34,0.16c3.6-0.47,7.17,0.65,9.95,3.1c1.74-1.6,4.2-2.74,7.52-1.96c0.96-1.49,2.43-3.09,4.9-3.66
		c2.47-0.57,4.49,0.23,6.02,1.16c1.84-1.04,3.67-1.39,4.95-1.64c0.26-0.05,0.52-0.1,0.77-0.15c0.3-0.07,0.59-0.12,0.88-0.18
		c2.55-1.7,6.18-2.66,9.94,1.08l3.23-1.49l1.63,2.05l4.71-2.28l2.88,5.17c0.12,0.19,0.65,0.7,1.04,1.07
		c1.24,1.19,3.11,2.97,4.14,5.77c0.08,0.06,0.21,0.16,0.41,0.28c0.39,0.23,0.8,0.45,1.21,0.67c3.91,2.02,5.97,3.92,6.71,6.74
		c0.21,0.01,0.42,0.02,0.63,0.04c1.18,0.1,2.34-0.1,3.68-0.63c1.37-0.55,2.64-0.57,3.62-0.45c2.58-0.88,5.36-0.88,7.95,0.03
		c5.2-1.34,8.43,0.21,10.41,2.29c0.38,0.08,0.72,0.14,1.06,0.21c0.84,0.16,1.67,0.32,2.5,0.53c1.42,0.36,2.81,0.99,4.01,1.81
		c0.82,0.56,1.59,1.19,2.46,1.92l2.3,1.88l0.75,2.04c0.1,0.27,0.23,0.65,0.38,1.04c0.6,1.02,1.67,2.93,1.3,5.43
		c-0.28,1.91-1.19,5.25-4.11,7c-0.06,0.1-0.12,0.21-0.19,0.31c-0.34,0.54-0.68,1.09-1.09,1.63l-3.11,4.13l-2.67-1.3l-1.57,1.43
		l-2.39-1.21l-2.37,1.73l-3.37-2.29c-1.49,0.32-3.02,0.25-4.45-0.17l0.54,2c2.01,2.18,2.7,5.26,1.73,8.63
		c-0.04,0.16-0.06,0.35-0.09,0.54c-0.12,0.72-0.3,1.85-0.79,3.08c0.75,2.14,0.65,4.33-0.29,6.21c-0.96,1.91-2.73,3.31-4.86,3.82
		c-0.28,0.08-0.55,0.22-0.83,0.34c-0.82,0.35-1.97,0.85-3.36,1.11c-1.1,1.28-2.44,2.17-4,2.65c-0.81,0.25-1.83,0.43-3.04,0.37
		l1.88,0.77l1.36,3.7c0.05,0.12,0.1,0.25,0.14,0.38c1.66-0.18,3.03,0.18,4.13,0.74c1.83-0.1,4.11-0.01,6.25,1.22
		c0.13,0.07,0.39,0.24,1.91-0.05l0.42-0.09c0.71-0.16,1.79-0.42,3.05-0.38c3.64,0.05,5.6,1.73,6.61,3.12
		c0.41,0.56,0.81,1.29,1.07,2.19c1.41,0.86,2.2,1.97,2.61,2.72c0.88,1.6,1.1,3.47,0.66,5.28c0.36,0.46,0.92,1,1.54,1.61
		c3.31,3.18,4.06,7.62,1.96,11.59c-1.14,2.16-2.29,4.32-3.81,6.43c-1.39,1.93-3.76,3.44-6.33,4.03c-6.14,1.41-12.44,0.66-19.23-2.3
		c-2.57-1.12-4.4-3.07-5.32-5.56l-0.6-0.28l-0.75,1.37c-1.24,2.6-3.65,3.59-5.51,3.65c-2.21,0.06-5.38,0.17-8.49-1.41
		c-0.31,0.08-0.61,0.14-0.9,0.19c-0.19,1.04-0.57,2.05-1.13,2.99c-1.58,2.66-4.38,4.38-7.69,4.72c-2.5,0.26-4.96-0.24-7.49-1.51
		c-1.07,0.8-2.14,1.59-3.23,2.36c-0.73,0.52-1.48,0.95-2.2,1.33c0.04,0.18,0.09,0.36,0.13,0.55c0.69,2.84,1.34,5.52,2.14,8.15
		c0.4,1.32,0.69,2.65,0.85,4.06c0.1,0,0.19,0,0.28,0c1.81-0.04,3.63-0.15,5.44-0.27c1.81-0.11,3.62-0.23,5.44-0.28
		c7.37-0.2,13.98-0.31,20.19-0.35c0.04,0,0.07,0,0.11,0c6.13,0,9.39,3.19,9.71,9.5c0.05,0.93,0.11,1.87,0.18,2.81
		c0.11,1.62,0.22,3.24,0.26,4.86c0.03,1.19,0.12,4.81-2.57,7.62c-1.47,1.54-3.41,2.46-5.76,2.74c-0.57,2.25-1.12,4.72-1.77,7.91
		c-0.98,4.77-2.57,9.69-4.88,15.07c-0.06,0.13-0.13,0.24-0.19,0.37c43.11-18.84,72.89-59,72.89-105.52
		C1171,321.65,1113.61,269.3,1042.81,269.3z"/>
</g>
</svg>
